<svg xmlns="http://www.w3.org/2000/svg" viewBox="0 0 85 84.9"><defs><style>.cls-1{fill:#373737;}</style></defs><title>icons</title><g id="Layer_2" data-name="Layer 2"><path class="cls-1" d="M54.38,28.69a14.28,14.28,0,0,0-10.49-4.05L24.73,43.79a14.28,14.28,0,0,0,4.05,10.49c2.43,3.32,5.36,4.36,8.39,7,1,.85,4.26,3.05,8.25,5.64l8.26-8.26L57.05,62l-7.53,7.53c7.55,4.83,15.68,9.88,15.68,9.88A10.13,10.13,0,0,0,79.53,65.11l-.35-.34-2-3.22-5.26,5.26-3.37-3.37,6-6C69.77,49.8,62.94,39.08,61.28,37.17L61.13,37l-9.52,9.52-3.37-3.37,10-10a18,18,0,0,0-3.35-3.81Q54.66,29,54.38,28.69Z"/><path class="cls-1" d="M27.28,2.88a10.8,10.8,0,0,0-6.45,4.79,10.83,10.83,0,0,0-13,13.08,10.79,10.79,0,0,0-4.93,6.53A10.53,10.53,0,0,0,7.55,39.15h0l0,0,.2.11.23.12a26.34,26.34,0,0,0,2.64,1.25h0a11.06,11.06,0,0,0,4.42,1h0a11,11,0,0,0,1.34-.06L20,41.43,41.44,20l.17-3.58a11,11,0,0,0,.06-1.34h0a11.06,11.06,0,0,0-1-4.42v0A26.34,26.34,0,0,0,39.42,8l-.12-.23-.11-.2,0,0h0A10.53,10.53,0,0,0,27.28,2.88Z"/></g></svg>