<svg xmlns="http://www.w3.org/2000/svg" viewBox="0 0 85 84.9"><defs><style>.cls-1{fill:#373737;}</style></defs><title>icons</title><g id="Layer_2" data-name="Layer 2"><path class="cls-1" d="M81.5,24.71a7.39,7.39,0,0,1-.87,1.23,2.61,2.61,0,0,1-4.38-1.85c0-2.34,0-4.68,0-7,0-.28,0-.56,0-.93-.31,0-.58,0-.85,0H68.68c-1.81,0-3-1-3-2.61a2.65,2.65,0,0,1,2.95-2.65c3.13,0,6.27,0,9.4,0a3.2,3.2,0,0,1,3.43,2Z"/><path class="cls-1" d="M81.5,72.07a3.21,3.21,0,0,1-3.43,2c-3.18-.07-6.37,0-9.56,0a2.62,2.62,0,0,1-2.79-2.65,2.56,2.56,0,0,1,2.66-2.6c2.31,0,4.62,0,6.94,0h.93c0-.79,0-1.5,0-2.21,0-1.8,0-3.6,0-5.4a2.65,2.65,0,0,1,2-2.87A2.62,2.62,0,0,1,81.36,60a.78.78,0,0,0,.14.16Z"/><path class="cls-1" d="M18.26,63.47H13.06v-42h5.19Z"/><path class="cls-1" d="M49.83,63.48H44.67v-42h5.16Z"/><path class="cls-1" d="M70.94,63.47H65.75v-42h5.19Z"/><path class="cls-1" d="M28.81,52.94H23.63V21.44h5.18Z"/><path class="cls-1" d="M39.35,52.94H34.16V21.43h5.18Z"/><path class="cls-1" d="M60.38,21.44V52.9H55.21V21.44Z"/><path class="cls-1" d="M7.76,16.11c0,2.73,0,5.32,0,7.91A2.6,2.6,0,0,1,4.5,26.57a2.56,2.56,0,0,1-2-2.45q0-5.35,0-10.71A2.55,2.55,0,0,1,5.1,10.86q5.32-.05,10.63,0a2.62,2.62,0,0,1-.11,5.24c-2.31,0-4.62,0-6.93,0Z"/><path class="cls-1" d="M7.81,68.8h7.77a2.63,2.63,0,1,1,0,5.25c-2.29,0-4.57,0-6.86,0-1.13,0-2.26,0-3.39,0a2.64,2.64,0,0,1-2.79-2.82q0-5.09,0-10.17a2.63,2.63,0,1,1,5.25,0c0,2.39,0,4.78,0,7.17C7.77,68.38,7.79,68.53,7.81,68.8Z"/><path class="cls-1" d="M34.18,58.28h5.16v5.17H34.18Z"/><path class="cls-1" d="M23.62,63.41V58.3H28.8v5.11Z"/><path class="cls-1" d="M55.2,63.46V58.29h5.19v5.16Z"/></g></svg>